<svg width="217" height="20" fill="none" xmlns="http://www.w3.org/2000/svg"><path d="M11.239 3.74l-1.1 2.258 2.622 5.404H6.088L8.78 5.861l.656-1.346 1.1-2.257-.843-1.78h-.468L0 19.499h2.177l3.044-6.271h8.43l3.067 6.271h2.107L11.239 3.74zm16.131 6.933c1.64 0 2.928-.206 3.84-.616.937-.41 1.64-1.003 2.155-1.779.492-.775.75-1.687.75-2.736 0-1.255-.376-2.304-1.101-3.147C32.288 1.55 31.35.98 30.18.73c-.773-.183-2.248-.251-4.402-.251h-3.887v1.87h5.385c1.335 0 2.295.114 2.88.342a2.914 2.914 0 011.405 1.117c.351.525.539 1.095.539 1.734 0 .66-.188 1.254-.516 1.778-.35.525-.843.913-1.475 1.163-.632.228-1.592.365-2.903.365l-3.372-.022v-5.2h-1.943v15.895h1.943v-8.826h1.1l7.025 8.826h2.412l-7.001-8.848zm13.183-4.766c.726-1.232 1.756-2.213 3.09-2.942a8.842 8.842 0 014.332-1.095c1.428 0 2.74.274 3.934.844 1.194.547 2.2 1.368 3.067 2.463l1.545-1.163a9.64 9.64 0 00-3.605-2.965C51.44.342 49.802 0 47.976 0c-3.021 0-5.526.958-7.54 2.85-1.873 1.78-2.88 3.946-2.997 6.5h2.084a7.515 7.515 0 011.03-3.443zm7.54 12.269c-2.483 0-4.543-.776-6.182-2.326-1.498-1.414-2.295-3.17-2.435-5.223h-2.06c.14 2.326.96 4.333 2.458 6.043 1.967 2.212 4.683 3.33 8.078 3.33 1.803 0 3.418-.32 4.87-.98a9.964 9.964 0 003.652-2.806l-1.545-1.14c-1.803 2.053-4.097 3.102-6.837 3.102zM69.984 3.763l-1.1 2.258 2.599 5.381H64.81l2.74-5.632.608-1.255 1.1-2.257-.843-1.78h-.468l-9.225 19.02H60.9l3.044-6.271h8.405l3.067 6.271h2.108l-7.54-15.735zm25.404.752c-1.053-1.596-2.552-2.713-4.448-3.352-1.311-.456-3.442-.684-6.37-.684h-4.05v1.87h4.261c2.294.045 3.957.205 5.034.524 1.639.48 2.903 1.369 3.816 2.669.913 1.3 1.358 2.873 1.358 4.697 0 1.756-.421 3.239-1.264 4.447-.843 1.21-1.99 2.053-3.465 2.509-1.054.32-2.927.502-5.62.502h-2.247V3.603H80.52v15.895h6.205c2.435 0 4.332-.342 5.69-1.026 1.358-.684 2.458-1.756 3.301-3.216.843-1.459 1.265-3.124 1.265-5.04.023-2.189-.516-4.104-1.593-5.7zm5.128-4.036h1.943v19.02h-1.943V.478zm16.201 3.322l-1.1 2.258 2.622 5.405h-6.673l2.693-5.542.655-1.345 1.101-2.258-.843-1.779h-.468l-9.272 19.02h2.177l3.044-6.272h8.406l3.067 6.271h2.107l-7.516-15.758zm23.439 6.872c1.639 0 2.926-.206 3.863-.616.936-.41 1.639-1.003 2.154-1.779.492-.775.749-1.687.749-2.736 0-1.255-.351-2.304-1.077-3.147-.726-.844-1.662-1.414-2.833-1.665-.773-.183-2.248-.251-4.402-.251h-3.91v1.87h5.385c1.335 0 2.295.114 2.88.342a2.91 2.91 0 011.405 1.117c.351.525.539 1.095.539 1.734a3.31 3.31 0 01-.515 1.778c-.352.525-.843.913-1.476 1.163-.632.228-1.592.365-2.903.365l-3.371-.022v-5.2H134.7v15.895h1.944v-8.826h1.1l7.024 8.826h2.412l-7.024-8.848zM151.113.479h11.192l-.702 1.87h-8.546v5.975h9.154l-.702 1.87h-8.452v7.48h9.154l-.702 1.87H151.09V.479h.023zm29.408 4.036c-1.077-1.596-2.552-2.713-4.449-3.352-1.311-.456-3.441-.684-6.368-.684h-4.051v1.87h3.77c2.529.023 4.378.205 5.526.547 1.639.48 2.903 1.369 3.816 2.668.913 1.3 1.358 2.874 1.358 4.698 0 1.756-.421 3.239-1.264 4.447-.843 1.209-1.99 2.053-3.466 2.509-1.053.319-2.926.502-5.619.502h-2.248V3.626h-1.873v15.895h6.205c2.435 0 4.332-.342 5.69-1.026 1.358-.684 2.458-1.756 3.301-3.216.843-1.46 1.264-3.124 1.264-5.04.024-2.212-.515-4.127-1.592-5.724zM196.958.479v11.494c0 1.505-.071 2.486-.188 2.964-.187.684-.468 1.255-.889 1.71a4.18 4.18 0 01-1.475 1.118c-.422.183-.843.32-1.288.365v1.825c1.264-.069 2.341-.457 3.254-1.14 1.031-.776 1.71-1.688 2.037-2.737.352-1.05.515-2.418.515-4.128V.456h-1.966V.48zm-8.265 15.918c-.352-.502-.586-1.14-.679-1.893-.047-.342-.071-1.186-.071-2.554V.456h-1.966V11.95c0 1.938.117 3.261.351 4.014.374 1.208 1.124 2.166 2.248 2.919.913.593 1.99.957 3.207 1.072V18.13a5.25 5.25 0 01-1.475-.456c-.726-.365-1.264-.775-1.615-1.277zM202.694.479h2.294l4.683 7.412 4.706-7.412h2.248l-5.83 9.19L217 19.5h-2.295l-5.081-8.028-5.08 8.027h-2.295l6.252-9.829-5.807-9.19zM47.881 11.767c1.06 0 1.92-.837 1.92-1.87 0-1.032-.86-1.87-1.92-1.87s-1.92.838-1.92 1.87c0 1.033.86 1.87 1.92 1.87z" fill="#E3202A"/></svg>