<svg width="369" height="38" fill="none" xmlns="http://www.w3.org/2000/svg"><path d="M19.11 6.578l-1.87 3.97 4.459 9.507H10.352l4.578-9.747 1.115-2.366 1.871-3.971L16.483.842h-.796L0 34.294h3.703l5.176-11.03h14.333l5.215 11.03h3.584L19.11 6.578zm27.433 12.193c2.787 0 4.977-.36 6.53-1.083 1.592-.722 2.787-1.764 3.663-3.128.836-1.364 1.274-2.968 1.274-4.813 0-2.206-.637-4.051-1.872-5.535-1.234-1.485-2.826-2.487-4.817-2.928-1.314-.321-3.822-.442-7.485-.442h-6.61v3.29h9.158c2.27 0 3.902.2 4.897.6a4.988 4.988 0 012.389 1.966c.597.923.916 1.926.916 3.049a5.959 5.959 0 01-.876 3.128c-.598.923-1.434 1.605-2.509 2.046-1.075.4-2.707.642-4.937.642l-5.733-.04V6.377h-3.304v27.957h3.304V18.81h1.871l11.945 15.523h4.1L46.544 18.77zm22.416-8.383c1.234-2.165 2.986-3.89 5.255-5.174 2.27-1.283 4.698-1.925 7.366-1.925 2.428 0 4.658.481 6.689 1.484 2.03.963 3.742 2.407 5.215 4.332l2.628-2.046c-1.593-2.206-3.623-3.97-6.131-5.214C87.472.602 84.685 0 81.58 0c-5.136 0-9.396 1.685-12.82 5.014-3.186 3.128-4.898 6.939-5.097 11.431h3.544c.12-2.206.717-4.252 1.752-6.057zm12.82 21.58c-4.22 0-7.724-1.364-10.511-4.092-2.548-2.486-3.902-5.575-4.14-9.185h-3.505c.24 4.091 1.633 7.621 4.181 10.63 3.344 3.89 7.963 5.855 13.736 5.855 3.066 0 5.813-.561 8.281-1.724a17.024 17.024 0 006.212-4.934l-2.628-2.006c-3.066 3.61-6.968 5.456-11.626 5.456zm37.226-25.35l-1.871 3.971 4.419 9.466h-11.347l4.659-9.907 1.035-2.206 1.871-3.971-1.433-3.129h-.797L99.855 34.294h3.702l5.176-11.03h14.294l5.215 11.03h3.583l-12.82-27.676zm43.199 1.324c-1.792-2.808-4.34-4.773-7.565-5.896-2.229-.803-5.852-1.204-10.829-1.204h-6.888v3.29h7.246c3.902.08 6.729.36 8.56.922 2.787.842 4.937 2.406 6.49 4.693 1.553 2.286 2.309 5.053 2.309 8.262 0 3.089-.716 5.696-2.15 7.822-1.433 2.125-3.384 3.61-5.892 4.412-1.792.561-4.977.882-9.556.882h-3.822V6.337h-3.185v27.957h10.551c4.14 0 7.365-.602 9.675-1.805 2.309-1.203 4.18-3.089 5.613-5.656 1.434-2.567 2.15-5.495 2.15-8.864.04-3.85-.876-7.22-2.707-10.027zm8.719-7.1h3.305v33.452h-3.305V.842zm27.55 5.844l-1.871 3.97 4.459 9.507h-11.347l4.579-9.747 1.115-2.367 1.871-3.97L195.845.95h-.796l-15.766 33.452h3.702l5.176-11.03h14.294l5.215 11.03h3.584L198.473 6.685zm39.856 12.085c2.787 0 4.977-.36 6.569-1.083 1.593-.722 2.787-1.764 3.663-3.128.836-1.364 1.274-2.968 1.274-4.813 0-2.206-.597-4.051-1.831-5.535-1.234-1.485-2.827-2.487-4.818-2.928-1.314-.321-3.822-.442-7.485-.442h-6.649v3.29h9.158c2.269 0 3.901.2 4.897.6a4.994 4.994 0 012.389 1.966c.597.923.915 1.926.915 3.049a5.953 5.953 0 01-.876 3.128c-.597.923-1.433 1.605-2.508 2.046-1.075.4-2.707.642-4.937.642l-5.733-.04V6.377h-3.305v27.957h3.305V18.81h1.871l11.944 15.523h4.101L238.329 18.77zM256.962.842h19.031l-1.194 3.29h-14.532V14.64h15.567l-1.194 3.29h-14.373v13.155h15.567l-1.194 3.29h-17.718V.841h.04zm50.007 7.1c-1.831-2.808-4.34-4.773-7.565-5.896-2.229-.803-5.852-1.204-10.829-1.204h-6.888v3.29h6.41c4.3.04 7.445.36 9.396.962 2.787.842 4.937 2.406 6.49 4.693 1.553 2.286 2.309 5.054 2.309 8.262 0 3.089-.716 5.696-2.15 7.822-1.433 2.126-3.384 3.61-5.892 4.412-1.792.561-4.977.882-9.556.882h-3.822V6.377h-3.185v27.957h10.551c4.141 0 7.365-.602 9.675-1.805 2.309-1.203 4.18-3.088 5.614-5.656 1.433-2.567 2.15-5.495 2.15-8.864.039-3.89-.876-7.26-2.708-10.067zm27.95-7.1v20.216c0 2.647-.12 4.372-.319 5.214-.318 1.203-.796 2.206-1.513 3.008-.677.842-1.513 1.484-2.508 1.966-.717.32-1.433.561-2.19.641v3.21c2.15-.121 3.982-.803 5.534-2.006 1.752-1.364 2.907-2.969 3.464-4.814.598-1.845.876-4.251.876-7.26V.803h-3.344v.04zM320.864 28.84c-.597-.882-.995-2.005-1.154-3.33-.08-.6-.12-2.085-.12-4.491V.802h-3.344v20.216c0 3.409.199 5.735.597 7.059.637 2.126 1.911 3.81 3.822 5.134 1.553 1.043 3.384 1.684 5.455 1.885v-3.209c-.836-.12-1.672-.4-2.508-.802-1.235-.642-2.15-1.364-2.748-2.246zM344.673.842h3.902l7.963 13.036L364.541.842h3.822l-9.914 16.165L369 34.293h-3.902l-8.639-14.119-8.64 14.119h-3.902l10.63-17.287L344.673.841zM81.42 20.697c1.804 0 3.265-1.473 3.265-3.29 0-1.816-1.461-3.288-3.264-3.288-1.803 0-3.265 1.472-3.265 3.289 0 1.816 1.462 3.289 3.264 3.289z" fill="#E3202A"/></svg>