<svg width="217" height="20" viewBox="0 0 217 20" fill="none" xmlns="http://www.w3.org/2000/svg">
<path d="M11.2387 3.74L10.1382 5.99769L12.7606 11.4025H6.08761L8.78021 5.86087L9.4358 4.51537L10.5363 2.25767L9.69335 0.478882H9.22507L0 19.4983H2.17749L5.2213 13.2269H13.6503L16.7175 19.4983H18.8248L11.2387 3.74Z" fill="#E3202A"/>
<path d="M27.3709 10.6727C29.0099 10.6727 30.2977 10.4675 31.2108 10.057C32.1474 9.6465 32.8498 9.05357 33.3649 8.27819C33.8566 7.50282 34.1141 6.59062 34.1141 5.54159C34.1141 4.28732 33.7395 3.23829 33.0137 2.3945C32.2879 1.55072 31.3513 0.980594 30.1806 0.729738C29.408 0.547298 27.9329 0.478882 25.7788 0.478882H21.8921V2.34889H27.2773C28.6119 2.34889 29.5719 2.46291 30.1572 2.69096C30.7425 2.91901 31.2108 3.2839 31.562 3.80842C31.9132 4.33293 32.1006 4.90305 32.1006 5.54159C32.1006 6.20294 31.9132 6.79587 31.5854 7.32039C31.2342 7.8449 30.7425 8.23259 30.1104 8.48345C29.4782 8.7115 28.5182 8.84832 27.207 8.84832L23.8354 8.82552V3.62597H21.8921V19.5211H23.8354V10.6955H24.9359L31.9601 19.5211H34.3717L27.3709 10.6727Z" fill="#E3202A"/>
<path d="M40.553 5.9065C41.2788 4.67503 42.309 3.69441 43.6436 2.96465C44.9782 2.23489 46.4065 1.87001 47.9752 1.87001C49.4034 1.87001 50.7146 2.14367 51.9087 2.7138C53.1028 3.26112 54.1096 4.0821 54.976 5.17674L56.5213 4.01368C55.5847 2.75941 54.3906 1.75599 52.9155 1.04903C51.4405 0.342077 49.8015 0 47.9752 0C44.9548 0 42.4495 0.957811 40.4359 2.85063C38.5628 4.62942 37.556 6.79589 37.4389 9.35006H39.5228C39.593 8.09578 39.9442 6.93272 40.553 5.9065ZM48.0923 18.1756C45.6104 18.1756 43.55 17.4002 41.911 15.8495C40.4125 14.4356 39.6164 12.6796 39.476 10.6271H37.4155C37.556 12.9532 38.3755 14.9601 39.874 16.6705C41.8408 18.8825 44.5568 20 47.9518 20C49.7547 20 51.3702 19.6807 52.8219 19.0194C54.2735 18.358 55.4911 17.423 56.4744 16.2144L54.9291 15.0741C53.1263 17.1266 50.8317 18.1756 48.0923 18.1756Z" fill="#E3202A"/>
<path d="M69.9843 3.7628L68.8838 6.0205L71.4827 11.4025H64.8098L67.5492 5.76964L68.158 4.51537L69.2584 2.25767L68.4155 0.478882H67.9472L58.7222 19.4983H60.8997L63.9435 13.2269H72.3491L75.4163 19.4983H77.5235L69.9843 3.7628Z" fill="#E3202A"/>
<path d="M95.3883 4.51537C94.3347 2.91901 92.8362 1.80157 90.9397 1.16303C89.6285 0.706932 87.4978 0.478882 84.5711 0.478882H80.5205V2.34889H83.775C84.1262 2.34889 84.454 2.34889 84.7818 2.34889C87.0764 2.3945 88.7388 2.55414 89.8158 2.87341C91.4548 3.35231 92.7191 4.24171 93.6323 5.54159C94.5454 6.84148 94.9903 8.41503 94.9903 10.2394C94.9903 11.9954 94.5688 13.4777 93.7259 14.6864C92.883 15.8951 91.7358 16.7389 90.2607 17.195C89.2071 17.5142 87.334 17.6967 84.6414 17.6967H82.3936V3.60316H80.5205V19.4983H86.7252C89.1602 19.4983 91.0568 19.1562 92.4148 18.472C93.7728 17.7879 94.8732 16.7161 95.7161 15.2565C96.559 13.797 96.9805 12.1322 96.9805 10.2166C97.0039 8.02734 96.4654 6.11172 95.3883 4.51537Z" fill="#E3202A"/>
<path d="M100.516 0.478882H102.459V19.4983H100.516V0.478882Z" fill="#E3202A"/>
<path d="M116.717 3.80128L115.617 6.05897L118.239 11.4638H111.566L114.259 5.92215L114.914 4.57664L116.015 2.31895L115.172 0.540161H114.704L105.432 19.5595H107.609L110.653 13.2882H119.059L122.126 19.5595H124.233L116.717 3.80128Z" fill="#E3202A"/>
<path d="M140.156 10.6727C141.795 10.6727 143.082 10.4675 144.019 10.057C144.955 9.6465 145.658 9.05357 146.173 8.27819C146.665 7.50282 146.922 6.59062 146.922 5.54159C146.922 4.28732 146.571 3.23829 145.845 2.3945C145.119 1.55072 144.183 0.980594 143.012 0.729738C142.239 0.547298 140.764 0.478882 138.61 0.478882H134.7V2.34889H140.085C141.42 2.34889 142.38 2.46291 142.965 2.69096C143.551 2.91901 144.019 3.2839 144.37 3.80842C144.721 4.33293 144.909 4.90305 144.909 5.54159C144.909 6.20294 144.721 6.79587 144.394 7.32039C144.042 7.8449 143.551 8.23259 142.918 8.48345C142.286 8.7115 141.326 8.84832 140.015 8.84832L136.644 8.82552V3.62597H134.7V19.5211H136.644V10.6955H137.744L144.768 19.5211H147.18L140.156 10.6727Z" fill="#E3202A"/>
<path d="M151.113 0.478882H162.305L161.603 2.34889H153.057V8.32381H162.211L161.509 10.1938H153.057V17.6739H162.211L161.509 19.5439H151.09V0.478882H151.113Z" fill="#E3202A"/>
<path d="M180.521 4.51537C179.444 2.91901 177.969 1.80157 176.072 1.16303C174.761 0.706932 172.631 0.478882 169.704 0.478882H165.653V2.34889H168.908C169.095 2.34889 169.259 2.34889 169.423 2.34889C171.952 2.37169 173.801 2.55414 174.949 2.89622C176.588 3.37512 177.852 4.26451 178.765 5.5644C179.678 6.86428 180.123 8.43783 180.123 10.2622C180.123 12.0182 179.702 13.5005 178.859 14.7092C178.016 15.9179 176.869 16.7617 175.393 17.2178C174.34 17.537 172.467 17.7195 169.774 17.7195H167.526V3.62597H165.653V19.5211H171.858C174.293 19.5211 176.19 19.179 177.548 18.4948C178.906 17.8107 180.006 16.7389 180.849 15.2793C181.692 13.8198 182.113 12.1551 182.113 10.2394C182.137 8.02734 181.598 6.11172 180.521 4.51537Z" fill="#E3202A"/>
<path d="M196.958 0.478983V11.9727C196.958 13.4778 196.887 14.4585 196.77 14.9374C196.583 15.6215 196.302 16.1916 195.881 16.6477C195.483 17.1266 194.991 17.4915 194.406 17.7652C193.984 17.9476 193.563 18.0845 193.118 18.1301V19.9545C194.382 19.886 195.459 19.4984 196.372 18.8142C197.403 18.0388 198.082 17.1266 198.409 16.0776C198.761 15.0286 198.924 13.6603 198.924 11.9499V0.456177H196.958V0.478983ZM188.693 16.3969C188.341 15.8952 188.107 15.2566 188.014 14.5041C187.967 14.162 187.943 13.3182 187.943 11.9499V0.456177H185.977V11.9499C185.977 13.8883 186.094 15.211 186.328 15.9636C186.702 17.1723 187.452 18.1301 188.576 18.8826C189.489 19.4756 190.566 19.8404 191.783 19.9545V18.1301C191.292 18.0616 190.8 17.902 190.308 17.674C189.582 17.3091 189.044 16.8986 188.693 16.3969Z" fill="#E3202A"/>
<path d="M202.694 0.478882H204.988L209.671 7.89051L214.377 0.478882H216.625L210.795 9.6693L217 19.4983H214.705L209.624 11.4709L204.544 19.4983H202.249L208.501 9.6693L202.694 0.478882Z" fill="#E3202A"/>
<path d="M47.8814 11.7674C48.9417 11.7674 49.8013 10.9301 49.8013 9.89735C49.8013 8.86457 48.9417 8.02734 47.8814 8.02734C46.821 8.02734 45.9614 8.86457 45.9614 9.89735C45.9614 10.9301 46.821 11.7674 47.8814 11.7674Z" fill="#E3202A"/>
</svg>
