<svg width="369" height="38" viewBox="0 0 369 38" fill="none" xmlns="http://www.w3.org/2000/svg">
<path d="M19.1109 6.57798L17.2396 10.5488L21.6989 20.0549H10.3517L14.9304 10.3082L16.0452 7.94171L17.9165 3.97084L16.4832 0.842285H15.6869L0 34.2938H3.70274L8.87862 23.2636H23.2118L28.4275 34.2938H32.0108L19.1109 6.57798Z" fill="#E3202A"/>
<path d="M46.5431 18.7713C49.3302 18.7713 51.5199 18.4104 53.0727 17.6884C54.6653 16.9664 55.8597 15.9236 56.7356 14.5598C57.5717 13.1961 58.0097 11.5917 58.0097 9.74665C58.0097 7.54061 57.3727 5.69557 56.1384 4.2115C54.9042 2.72744 53.3116 1.7247 51.3209 1.2835C50.007 0.962617 47.4987 0.842285 43.8358 0.842285H37.2266V4.13128H46.3839C48.6533 4.13128 50.2857 4.33183 51.2811 4.73293C52.2764 5.13402 53.0727 5.77579 53.6699 6.69832C54.2671 7.62084 54.5857 8.62358 54.5857 9.74665C54.5857 10.9098 54.2671 11.9527 53.7097 12.8752C53.1125 13.7977 52.2764 14.4796 51.2014 14.9208C50.1264 15.3219 48.494 15.5626 46.2644 15.5626L40.5312 15.5225V6.37743H37.2266V34.3339H40.5312V18.8115H42.4024L54.3468 34.3339H58.4477L46.5431 18.7713Z" fill="#E3202A"/>
<path d="M68.9587 10.3884C70.1929 8.2225 71.9448 6.49778 74.2142 5.21427C76.4836 3.93076 78.9123 3.28901 81.5798 3.28901C84.0085 3.28901 86.2381 3.77032 88.2687 4.77306C90.2992 5.73569 92.0112 7.17965 93.4844 9.10492L96.1121 7.05932C94.5195 4.85328 92.489 3.08845 89.9807 1.84505C87.4724 0.601649 84.6854 0 81.5798 0C76.4438 0 72.1836 1.68461 68.7596 5.01372C65.5744 8.14228 63.8624 11.9527 63.6634 16.445H67.2068C67.3263 14.239 67.9235 12.1934 68.9587 10.3884ZM81.7789 31.9675C77.5586 31.9675 74.0549 30.6038 71.2679 27.8763C68.7198 25.3895 67.3661 22.301 67.1272 18.6912H63.6235C63.8624 22.7823 65.2559 26.312 67.8041 29.3202C71.1485 33.2109 75.7669 35.1763 81.54 35.1763C84.6057 35.1763 87.3529 34.6147 89.8214 33.4516C92.2899 32.2884 94.3603 30.6439 96.0325 28.518L93.4047 26.5125C90.339 30.1224 86.4372 31.9675 81.7789 31.9675Z" fill="#E3202A"/>
<path d="M119.005 6.61809L117.134 10.589L121.553 20.0549H110.206L114.865 10.1477L115.9 7.94171L117.771 3.97084L116.338 0.842285H115.541L99.8545 34.2938H103.557L108.733 23.2636H123.027L128.242 34.2938H131.825L119.005 6.61809Z" fill="#E3202A"/>
<path d="M162.204 7.94171C160.412 5.13402 157.864 3.16865 154.639 2.04558C152.41 1.24338 148.787 0.842285 143.81 0.842285H136.922V4.13128H142.456C143.053 4.13128 143.611 4.13128 144.168 4.13128C148.07 4.2115 150.897 4.49227 152.728 5.05381C155.515 5.89612 157.665 7.46039 159.218 9.74665C160.771 12.0329 161.527 14.8005 161.527 18.0093C161.527 21.0977 160.811 23.7049 159.377 25.8307C157.944 27.9565 155.993 29.4406 153.485 30.2428C151.693 30.8043 148.508 31.1251 143.929 31.1251H140.107V6.33732H136.922V34.2938H147.473C151.613 34.2938 154.838 33.6922 157.148 32.4889C159.457 31.2856 161.328 29.4004 162.761 26.8334C164.195 24.2664 164.911 21.3384 164.911 17.9691C164.951 14.1186 164.035 10.7494 162.204 7.94171Z" fill="#E3202A"/>
<path d="M170.923 0.842285H174.228V34.2938H170.923V0.842285Z" fill="#E3202A"/>
<path d="M198.473 6.68564L196.602 10.6565L201.061 20.1625H189.714L194.293 10.4159L195.408 8.04937L197.279 4.07851L195.845 0.949951H195.049L179.283 34.4015H182.985L188.161 23.3713H202.455L207.67 34.4015H211.254L198.473 6.68564Z" fill="#E3202A"/>
<path d="M238.329 18.7713C241.116 18.7713 243.306 18.4104 244.898 17.6884C246.491 16.9664 247.685 15.9236 248.561 14.5598C249.397 13.1961 249.835 11.5917 249.835 9.74665C249.835 7.54061 249.238 5.69557 248.004 4.2115C246.77 2.72744 245.177 1.7247 243.186 1.2835C241.872 0.962617 239.364 0.842285 235.701 0.842285H229.052V4.13128H238.21C240.479 4.13128 242.111 4.33183 243.107 4.73293C244.102 5.13402 244.898 5.77579 245.496 6.69832C246.093 7.62084 246.411 8.62358 246.411 9.74665C246.411 10.9098 246.093 11.9527 245.535 12.8752C244.938 13.7977 244.102 14.4796 243.027 14.9208C241.952 15.3219 240.32 15.5626 238.09 15.5626L232.357 15.5225V6.37743H229.052V34.3339H232.357V18.8115H234.228L246.172 34.3339H250.273L238.329 18.7713Z" fill="#E3202A"/>
<path d="M256.962 0.842285H275.993L274.799 4.13128H260.267V14.64H275.834L274.64 17.9291H260.267V31.0851H275.834L274.64 34.3741H256.922V0.842285H256.962Z" fill="#E3202A"/>
<path d="M306.969 7.94171C305.138 5.13402 302.629 3.16865 299.404 2.04558C297.175 1.24338 293.552 0.842285 288.575 0.842285H281.687V4.13128H287.221C287.54 4.13128 287.818 4.13128 288.097 4.13128C292.397 4.17139 295.542 4.49228 297.493 5.09392C300.28 5.93623 302.43 7.5005 303.983 9.78676C305.536 12.073 306.292 14.8406 306.292 18.0494C306.292 21.1378 305.576 23.745 304.142 25.8708C302.709 27.9966 300.758 29.4807 298.25 30.2829C296.458 30.8444 293.273 31.1653 288.694 31.1653H284.872V6.37743H281.687V34.3339H292.238C296.379 34.3339 299.603 33.7323 301.913 32.529C304.222 31.3257 306.093 29.4406 307.527 26.8735C308.96 24.3065 309.677 21.3785 309.677 18.0093C309.716 14.1186 308.801 10.7494 306.969 7.94171Z" fill="#E3202A"/>
<path d="M334.919 0.842358V21.0577C334.919 23.7049 334.799 25.4296 334.6 26.2719C334.282 27.4752 333.804 28.478 333.087 29.2802C332.41 30.1225 331.574 30.7642 330.579 31.2456C329.862 31.5664 329.146 31.8071 328.389 31.8873V35.0961C330.539 34.9758 332.371 34.2939 333.923 33.0906C335.675 31.7269 336.83 30.1225 337.387 28.2774C337.985 26.4324 338.263 24.0258 338.263 21.0176V0.802246H334.919V0.842358ZM320.864 28.839C320.267 27.9566 319.869 26.8335 319.71 25.5098C319.63 24.9082 319.59 23.4242 319.59 21.0176V0.802246H316.246V21.0176C316.246 24.4269 316.445 26.7533 316.843 28.0769C317.48 30.2027 318.754 31.8873 320.665 33.2109C322.218 34.2538 324.049 34.8955 326.12 35.0961V31.8873C325.284 31.767 324.448 31.4862 323.612 31.0851C322.377 30.4434 321.462 29.7214 320.864 28.839Z" fill="#E3202A"/>
<path d="M344.673 0.842285H348.575L356.538 13.878L364.541 0.842285H368.363L358.449 17.0065L369 34.2938H365.098L356.459 20.1752L347.819 34.2938H343.917L354.547 17.0065L344.673 0.842285Z" fill="#E3202A"/>
<path d="M81.4205 20.6967C83.2236 20.6967 84.6853 19.2241 84.6853 17.4076C84.6853 15.5912 83.2236 14.1187 81.4205 14.1187C79.6175 14.1187 78.1558 15.5912 78.1558 17.4076C78.1558 19.2241 79.6175 20.6967 81.4205 20.6967Z" fill="#E3202A"/>
</svg>
